<svg width="451" height="380" viewBox="0 0 451 380" fill="none" xmlns="http://www.w3.org/2000/svg">
<path d="M13 10C13 4.47716 17.4772 0 23 0H441C446.523 0 451 4.47715 451 10V357C451 362.523 446.523 367 441 367H23C17.4771 367 13 362.523 13 357V10Z" fill="#FAFAFA"/>
<path d="M1 23C1 18.0294 5.02944 14 10 14H428C432.971 14 437 18.0294 437 23V370C437 374.971 432.971 379 428 379H9.99999C5.02943 379 1 374.971 1 370V23Z" stroke="#3B53FF" stroke-width="2"/>
<path d="M79.6 198.1H87.4V225H79.6V198.1ZM83.5 194.35C82.0667 194.35 80.9 193.933 80 193.1C79.1 192.267 78.65 191.233 78.65 190C78.65 188.767 79.1 187.733 80 186.9C80.9 186.067 82.0667 185.65 83.5 185.65C84.9333 185.65 86.1 186.05 87 186.85C87.9 187.65 88.35 188.65 88.35 189.85C88.35 191.15 87.9 192.233 87 193.1C86.1 193.933 84.9333 194.35 83.5 194.35ZM112.489 197.7C115.822 197.7 118.506 198.7 120.539 200.7C122.606 202.7 123.639 205.667 123.639 209.6V225H115.839V210.8C115.839 208.667 115.372 207.083 114.439 206.05C113.506 204.983 112.156 204.45 110.389 204.45C108.422 204.45 106.856 205.067 105.689 206.3C104.522 207.5 103.939 209.3 103.939 211.7V225H96.1391V198.1H103.589V201.25C104.622 200.117 105.906 199.25 107.439 198.65C108.972 198.017 110.656 197.7 112.489 197.7ZM141.259 225.4C139.026 225.4 136.843 225.133 134.709 224.6C132.576 224.033 130.876 223.333 129.609 222.5L132.209 216.9C133.409 217.667 134.859 218.3 136.559 218.8C138.259 219.267 139.926 219.5 141.559 219.5C144.859 219.5 146.509 218.683 146.509 217.05C146.509 216.283 146.059 215.733 145.159 215.4C144.259 215.067 142.876 214.783 141.009 214.55C138.809 214.217 136.993 213.833 135.559 213.4C134.126 212.967 132.876 212.2 131.809 211.1C130.776 210 130.259 208.433 130.259 206.4C130.259 204.7 130.743 203.2 131.709 201.9C132.709 200.567 134.143 199.533 136.009 198.8C137.909 198.067 140.143 197.7 142.709 197.7C144.609 197.7 146.493 197.917 148.359 198.35C150.259 198.75 151.826 199.317 153.059 200.05L150.459 205.6C148.093 204.267 145.509 203.6 142.709 203.6C141.043 203.6 139.793 203.833 138.959 204.3C138.126 204.767 137.709 205.367 137.709 206.1C137.709 206.933 138.159 207.517 139.059 207.85C139.959 208.183 141.393 208.5 143.359 208.8C145.559 209.167 147.359 209.567 148.759 210C150.159 210.4 151.376 211.15 152.409 212.25C153.443 213.35 153.959 214.883 153.959 216.85C153.959 218.517 153.459 220 152.459 221.3C151.459 222.6 149.993 223.617 148.059 224.35C146.159 225.05 143.893 225.4 141.259 225.4ZM173.272 225.4C170.405 225.4 167.822 224.817 165.522 223.65C163.255 222.45 161.472 220.8 160.172 218.7C158.905 216.6 158.272 214.217 158.272 211.55C158.272 208.883 158.905 206.5 160.172 204.4C161.472 202.3 163.255 200.667 165.522 199.5C167.822 198.3 170.405 197.7 173.272 197.7C176.105 197.7 178.572 198.3 180.672 199.5C182.805 200.667 184.355 202.35 185.322 204.55L179.272 207.8C177.872 205.333 175.855 204.1 173.222 204.1C171.189 204.1 169.505 204.767 168.172 206.1C166.839 207.433 166.172 209.25 166.172 211.55C166.172 213.85 166.839 215.667 168.172 217C169.505 218.333 171.189 219 173.222 219C175.889 219 177.905 217.767 179.272 215.3L185.322 218.6C184.355 220.733 182.805 222.4 180.672 223.6C178.572 224.8 176.105 225.4 173.272 225.4ZM198.763 201.65C199.696 200.35 200.946 199.367 202.513 198.7C204.113 198.033 205.946 197.7 208.013 197.7V204.9C207.146 204.833 206.563 204.8 206.263 204.8C204.03 204.8 202.28 205.433 201.013 206.7C199.746 207.933 199.113 209.8 199.113 212.3V225H191.313V198.1H198.763V201.65ZM240.257 211.65C240.257 211.75 240.207 212.45 240.107 213.75H219.757C220.123 215.417 220.99 216.733 222.357 217.7C223.723 218.667 225.423 219.15 227.457 219.15C228.857 219.15 230.09 218.95 231.157 218.55C232.257 218.117 233.273 217.45 234.207 216.55L238.357 221.05C235.823 223.95 232.123 225.4 227.257 225.4C224.223 225.4 221.54 224.817 219.207 223.65C216.873 222.45 215.073 220.8 213.807 218.7C212.54 216.6 211.907 214.217 211.907 211.55C211.907 208.917 212.523 206.55 213.757 204.45C215.023 202.317 216.74 200.667 218.907 199.5C221.107 198.3 223.557 197.7 226.257 197.7C228.89 197.7 231.273 198.267 233.407 199.4C235.54 200.533 237.207 202.167 238.407 204.3C239.64 206.4 240.257 208.85 240.257 211.65ZM226.307 203.6C224.54 203.6 223.057 204.1 221.857 205.1C220.657 206.1 219.923 207.467 219.657 209.2H232.907C232.64 207.5 231.907 206.15 230.707 205.15C229.507 204.117 228.04 203.6 226.307 203.6ZM273.161 198.1L261.811 225H253.761L242.461 198.1H250.511L257.961 216.4L265.661 198.1H273.161ZM287.815 197.7C291.982 197.7 295.182 198.7 297.415 200.7C299.649 202.667 300.765 205.65 300.765 209.65V225H293.465V221.65C291.999 224.15 289.265 225.4 285.265 225.4C283.199 225.4 281.399 225.05 279.865 224.35C278.365 223.65 277.215 222.683 276.415 221.45C275.615 220.217 275.215 218.817 275.215 217.25C275.215 214.75 276.149 212.783 278.015 211.35C279.915 209.917 282.832 209.2 286.765 209.2H292.965C292.965 207.5 292.449 206.2 291.415 205.3C290.382 204.367 288.832 203.9 286.765 203.9C285.332 203.9 283.915 204.133 282.515 204.6C281.149 205.033 279.982 205.633 279.015 206.4L276.215 200.95C277.682 199.917 279.432 199.117 281.465 198.55C283.532 197.983 285.649 197.7 287.815 197.7ZM287.215 220.15C288.549 220.15 289.732 219.85 290.765 219.25C291.799 218.617 292.532 217.7 292.965 216.5V213.75H287.615C284.415 213.75 282.815 214.8 282.815 216.9C282.815 217.9 283.199 218.7 283.965 219.3C284.765 219.867 285.849 220.15 287.215 220.15ZM308.325 207.8H322.475V214.05H308.325V207.8ZM339.162 225.4C336.928 225.4 334.745 225.133 332.612 224.6C330.478 224.033 328.778 223.333 327.512 222.5L330.112 216.9C331.312 217.667 332.762 218.3 334.462 218.8C336.162 219.267 337.828 219.5 339.462 219.5C342.762 219.5 344.412 218.683 344.412 217.05C344.412 216.283 343.962 215.733 343.062 215.4C342.162 215.067 340.778 214.783 338.912 214.55C336.712 214.217 334.895 213.833 333.462 213.4C332.028 212.967 330.778 212.2 329.712 211.1C328.678 210 328.162 208.433 328.162 206.4C328.162 204.7 328.645 203.2 329.612 201.9C330.612 200.567 332.045 199.533 333.912 198.8C335.812 198.067 338.045 197.7 340.612 197.7C342.512 197.7 344.395 197.917 346.262 198.35C348.162 198.75 349.728 199.317 350.962 200.05L348.362 205.6C345.995 204.267 343.412 203.6 340.612 203.6C338.945 203.6 337.695 203.833 336.862 204.3C336.028 204.767 335.612 205.367 335.612 206.1C335.612 206.933 336.062 207.517 336.962 207.85C337.862 208.183 339.295 208.5 341.262 208.8C343.462 209.167 345.262 209.567 346.662 210C348.062 210.4 349.278 211.15 350.312 212.25C351.345 213.35 351.862 214.883 351.862 216.85C351.862 218.517 351.362 220 350.362 221.3C349.362 222.6 347.895 223.617 345.962 224.35C344.062 225.05 341.795 225.4 339.162 225.4ZM384.524 211.65C384.524 211.75 384.474 212.45 384.374 213.75H364.024C364.391 215.417 365.258 216.733 366.624 217.7C367.991 218.667 369.691 219.15 371.724 219.15C373.124 219.15 374.358 218.95 375.424 218.55C376.524 218.117 377.541 217.45 378.474 216.55L382.624 221.05C380.091 223.95 376.391 225.4 371.524 225.4C368.491 225.4 365.808 224.817 363.474 223.65C361.141 222.45 359.341 220.8 358.074 218.7C356.808 216.6 356.174 214.217 356.174 211.55C356.174 208.917 356.791 206.55 358.024 204.45C359.291 202.317 361.008 200.667 363.174 199.5C365.374 198.3 367.824 197.7 370.524 197.7C373.158 197.7 375.541 198.267 377.674 199.4C379.808 200.533 381.474 202.167 382.674 204.3C383.908 206.4 384.524 208.85 384.524 211.65ZM370.574 203.6C368.808 203.6 367.324 204.1 366.124 205.1C364.924 206.1 364.191 207.467 363.924 209.2H377.174C376.908 207.5 376.174 206.15 374.974 205.15C373.774 204.117 372.308 203.6 370.574 203.6ZM92.95 286.6C90.05 286.6 87.4667 285.883 85.2 284.45C82.9333 283.017 81.15 280.95 79.85 278.25C78.5833 275.517 77.95 272.267 77.95 268.5C77.95 264.733 78.5833 261.5 79.85 258.8C81.15 256.067 82.9333 253.983 85.2 252.55C87.4667 251.117 90.05 250.4 92.95 250.4C95.85 250.4 98.4333 251.117 100.7 252.55C102.967 253.983 104.733 256.067 106 258.8C107.3 261.5 107.95 264.733 107.95 268.5C107.95 272.267 107.3 275.517 106 278.25C104.733 280.95 102.967 283.017 100.7 284.45C98.4333 285.883 95.85 286.6 92.95 286.6ZM92.95 279.75C95.0833 279.75 96.75 278.833 97.95 277C99.1833 275.167 99.8 272.333 99.8 268.5C99.8 264.667 99.1833 261.833 97.95 260C96.75 258.167 95.0833 257.25 92.95 257.25C90.85 257.25 89.1833 258.167 87.95 260C86.75 261.833 86.15 264.667 86.15 268.5C86.15 272.333 86.75 275.167 87.95 277C89.1833 278.833 90.85 279.75 92.95 279.75ZM125.386 264.15C130.319 264.15 133.952 265.133 136.286 267.1C138.652 269.067 139.836 271.7 139.836 275C139.836 277.133 139.302 279.083 138.236 280.85C137.169 282.583 135.536 283.983 133.336 285.05C131.169 286.083 128.486 286.6 125.286 286.6C122.819 286.6 120.386 286.283 117.986 285.65C115.619 284.983 113.602 284.05 111.936 282.85L115.136 276.65C116.469 277.65 118.002 278.433 119.736 279C121.469 279.533 123.252 279.8 125.086 279.8C127.119 279.8 128.719 279.4 129.886 278.6C131.052 277.8 131.636 276.683 131.636 275.25C131.636 273.75 131.019 272.617 129.786 271.85C128.586 271.083 126.486 270.7 123.486 270.7H114.536L116.336 251H137.686V257.5H123.086L122.536 264.15H125.386ZM189.332 248.9V286H181.882V282.9C179.949 285.233 177.149 286.4 173.482 286.4C170.949 286.4 168.649 285.833 166.582 284.7C164.549 283.567 162.949 281.95 161.782 279.85C160.615 277.75 160.032 275.317 160.032 272.55C160.032 269.783 160.615 267.35 161.782 265.25C162.949 263.15 164.549 261.533 166.582 260.4C168.649 259.267 170.949 258.7 173.482 258.7C176.915 258.7 179.599 259.783 181.532 261.95V248.9H189.332ZM174.832 280C176.799 280 178.432 279.333 179.732 278C181.032 276.633 181.682 274.817 181.682 272.55C181.682 270.283 181.032 268.483 179.732 267.15C178.432 265.783 176.799 265.1 174.832 265.1C172.832 265.1 171.182 265.783 169.882 267.15C168.582 268.483 167.932 270.283 167.932 272.55C167.932 274.817 168.582 276.633 169.882 278C171.182 279.333 172.832 280 174.832 280ZM224.401 272.65C224.401 272.75 224.351 273.45 224.251 274.75H203.901C204.268 276.417 205.135 277.733 206.501 278.7C207.868 279.667 209.568 280.15 211.601 280.15C213.001 280.15 214.235 279.95 215.301 279.55C216.401 279.117 217.418 278.45 218.351 277.55L222.501 282.05C219.968 284.95 216.268 286.4 211.401 286.4C208.368 286.4 205.685 285.817 203.351 284.65C201.018 283.45 199.218 281.8 197.951 279.7C196.685 277.6 196.051 275.217 196.051 272.55C196.051 269.917 196.668 267.55 197.901 265.45C199.168 263.317 200.885 261.667 203.051 260.5C205.251 259.3 207.701 258.7 210.401 258.7C213.035 258.7 215.418 259.267 217.551 260.4C219.685 261.533 221.351 263.167 222.551 265.3C223.785 267.4 224.401 269.85 224.401 272.65ZM210.451 264.6C208.685 264.6 207.201 265.1 206.001 266.1C204.801 267.1 204.068 268.467 203.801 270.2H217.051C216.785 268.5 216.051 267.15 214.851 266.15C213.651 265.117 212.185 264.6 210.451 264.6ZM263.104 258.7C266.438 258.7 269.121 259.7 271.154 261.7C273.221 263.7 274.254 266.667 274.254 270.6V286H266.454V271.8C266.454 269.667 265.988 268.083 265.054 267.05C264.121 265.983 262.771 265.45 261.004 265.45C259.038 265.45 257.471 266.067 256.304 267.3C255.138 268.5 254.554 270.3 254.554 272.7V286H246.754V259.1H254.204V262.25C255.238 261.117 256.521 260.25 258.054 259.65C259.588 259.017 261.271 258.7 263.104 258.7ZM295.918 286.4C293.084 286.4 290.534 285.817 288.268 284.65C286.034 283.45 284.284 281.8 283.018 279.7C281.751 277.6 281.118 275.217 281.118 272.55C281.118 269.883 281.751 267.5 283.018 265.4C284.284 263.3 286.034 261.667 288.268 260.5C290.534 259.3 293.084 258.7 295.918 258.7C298.751 258.7 301.284 259.3 303.518 260.5C305.751 261.667 307.501 263.3 308.768 265.4C310.034 267.5 310.668 269.883 310.668 272.55C310.668 275.217 310.034 277.6 308.768 279.7C307.501 281.8 305.751 283.45 303.518 284.65C301.284 285.817 298.751 286.4 295.918 286.4ZM295.918 280C297.918 280 299.551 279.333 300.818 278C302.118 276.633 302.768 274.817 302.768 272.55C302.768 270.283 302.118 268.483 300.818 267.15C299.551 265.783 297.918 265.1 295.918 265.1C293.918 265.1 292.268 265.783 290.968 267.15C289.668 268.483 289.018 270.283 289.018 272.55C289.018 274.817 289.668 276.633 290.968 278C292.268 279.333 293.918 280 295.918 280ZM343.349 259.1L331.999 286H323.949L312.649 259.1H320.699L328.149 277.4L335.849 259.1H343.349Z" fill="#3B53FF"/>
<path d="M219.819 136C218.099 136 216.351 135.339 215.032 134.017L191.988 110.91C188.004 106.915 188.004 100.42 191.988 96.4251C195.972 92.4302 202.45 92.4302 206.434 96.4251L219.819 109.847L257.566 71.9961C261.55 68.0013 268.028 68.0013 272.012 71.9961C275.996 75.991 275.996 82.4862 272.012 86.4811L224.605 133.988C223.287 135.339 221.567 136 219.819 136ZM199.211 98.6668C197.95 98.6668 196.66 99.1554 195.685 100.133C193.736 102.087 193.736 105.248 195.685 107.203L218.73 130.309C219.331 130.913 220.306 130.913 220.908 130.309L268.315 82.7736C270.264 80.8193 270.264 77.6579 268.315 75.7036C266.366 73.7493 263.213 73.7493 261.264 75.7036L223.143 113.928C222.255 114.819 221.08 115.307 219.819 115.307C218.558 115.307 217.382 114.819 216.494 113.928L202.736 100.133C201.762 99.1554 200.501 98.6668 199.211 98.6668Z" fill="#3B53FF"/>
</svg>
