<svg width="451" height="380" viewBox="0 0 451 380" fill="none" xmlns="http://www.w3.org/2000/svg">
<path d="M13 10C13 4.47716 17.4772 0 23 0H441C446.523 0 451 4.47715 451 10V357C451 362.523 446.523 367 441 367H23C17.4771 367 13 362.523 13 357V10Z" fill="#FAFAFA"/>
<path d="M1 23C1 18.0294 5.02944 14 10 14H428C432.971 14 437 18.0294 437 23V370C437 374.971 432.971 379 428 379H9.99999C5.02943 379 1 374.971 1 370V23Z" stroke="#00DEDE" stroke-width="2"/>
<path d="M66.6 198.1H74.4V225H66.6V198.1ZM70.5 194.35C69.0667 194.35 67.9 193.933 67 193.1C66.1 192.267 65.65 191.233 65.65 190C65.65 188.767 66.1 187.733 67 186.9C67.9 186.067 69.0667 185.65 70.5 185.65C71.9333 185.65 73.1 186.05 74 186.85C74.9 187.65 75.35 188.65 75.35 189.85C75.35 191.15 74.9 192.233 74 193.1C73.1 193.933 71.9333 194.35 70.5 194.35ZM99.4891 197.7C102.822 197.7 105.506 198.7 107.539 200.7C109.606 202.7 110.639 205.667 110.639 209.6V225H102.839V210.8C102.839 208.667 102.372 207.083 101.439 206.05C100.506 204.983 99.1557 204.45 97.3891 204.45C95.4224 204.45 93.8557 205.067 92.6891 206.3C91.5224 207.5 90.9391 209.3 90.9391 211.7V225H83.1391V198.1H90.5891V201.25C91.6224 200.117 92.9057 199.25 94.4391 198.65C95.9724 198.017 97.6557 197.7 99.4891 197.7ZM128.259 225.4C126.026 225.4 123.843 225.133 121.709 224.6C119.576 224.033 117.876 223.333 116.609 222.5L119.209 216.9C120.409 217.667 121.859 218.3 123.559 218.8C125.259 219.267 126.926 219.5 128.559 219.5C131.859 219.5 133.509 218.683 133.509 217.05C133.509 216.283 133.059 215.733 132.159 215.4C131.259 215.067 129.876 214.783 128.009 214.55C125.809 214.217 123.993 213.833 122.559 213.4C121.126 212.967 119.876 212.2 118.809 211.1C117.776 210 117.259 208.433 117.259 206.4C117.259 204.7 117.743 203.2 118.709 201.9C119.709 200.567 121.143 199.533 123.009 198.8C124.909 198.067 127.143 197.7 129.709 197.7C131.609 197.7 133.493 197.917 135.359 198.35C137.259 198.75 138.826 199.317 140.059 200.05L137.459 205.6C135.093 204.267 132.509 203.6 129.709 203.6C128.043 203.6 126.793 203.833 125.959 204.3C125.126 204.767 124.709 205.367 124.709 206.1C124.709 206.933 125.159 207.517 126.059 207.85C126.959 208.183 128.393 208.5 130.359 208.8C132.559 209.167 134.359 209.567 135.759 210C137.159 210.4 138.376 211.15 139.409 212.25C140.443 213.35 140.959 214.883 140.959 216.85C140.959 218.517 140.459 220 139.459 221.3C138.459 222.6 136.993 223.617 135.059 224.35C133.159 225.05 130.893 225.4 128.259 225.4ZM160.272 225.4C157.405 225.4 154.822 224.817 152.522 223.65C150.255 222.45 148.472 220.8 147.172 218.7C145.905 216.6 145.272 214.217 145.272 211.55C145.272 208.883 145.905 206.5 147.172 204.4C148.472 202.3 150.255 200.667 152.522 199.5C154.822 198.3 157.405 197.7 160.272 197.7C163.105 197.7 165.572 198.3 167.672 199.5C169.805 200.667 171.355 202.35 172.322 204.55L166.272 207.8C164.872 205.333 162.855 204.1 160.222 204.1C158.189 204.1 156.505 204.767 155.172 206.1C153.839 207.433 153.172 209.25 153.172 211.55C153.172 213.85 153.839 215.667 155.172 217C156.505 218.333 158.189 219 160.222 219C162.889 219 164.905 217.767 166.272 215.3L172.322 218.6C171.355 220.733 169.805 222.4 167.672 223.6C165.572 224.8 163.105 225.4 160.272 225.4ZM185.763 201.65C186.696 200.35 187.946 199.367 189.513 198.7C191.113 198.033 192.946 197.7 195.013 197.7V204.9C194.146 204.833 193.563 204.8 193.263 204.8C191.03 204.8 189.28 205.433 188.013 206.7C186.746 207.933 186.113 209.8 186.113 212.3V225H178.313V198.1H185.763V201.65ZM227.257 211.65C227.257 211.75 227.207 212.45 227.107 213.75H206.757C207.123 215.417 207.99 216.733 209.357 217.7C210.723 218.667 212.423 219.15 214.457 219.15C215.857 219.15 217.09 218.95 218.157 218.55C219.257 218.117 220.273 217.45 221.207 216.55L225.357 221.05C222.823 223.95 219.123 225.4 214.257 225.4C211.223 225.4 208.54 224.817 206.207 223.65C203.873 222.45 202.073 220.8 200.807 218.7C199.54 216.6 198.907 214.217 198.907 211.55C198.907 208.917 199.523 206.55 200.757 204.45C202.023 202.317 203.74 200.667 205.907 199.5C208.107 198.3 210.557 197.7 213.257 197.7C215.89 197.7 218.273 198.267 220.407 199.4C222.54 200.533 224.207 202.167 225.407 204.3C226.64 206.4 227.257 208.85 227.257 211.65ZM213.307 203.6C211.54 203.6 210.057 204.1 208.857 205.1C207.657 206.1 206.923 207.467 206.657 209.2H219.907C219.64 207.5 218.907 206.15 217.707 205.15C216.507 204.117 215.04 203.6 213.307 203.6ZM260.161 198.1L248.811 225H240.761L229.461 198.1H237.511L244.961 216.4L252.661 198.1H260.161ZM274.815 197.7C278.982 197.7 282.182 198.7 284.415 200.7C286.649 202.667 287.765 205.65 287.765 209.65V225H280.465V221.65C278.999 224.15 276.265 225.4 272.265 225.4C270.199 225.4 268.399 225.05 266.865 224.35C265.365 223.65 264.215 222.683 263.415 221.45C262.615 220.217 262.215 218.817 262.215 217.25C262.215 214.75 263.149 212.783 265.015 211.35C266.915 209.917 269.832 209.2 273.765 209.2H279.965C279.965 207.5 279.449 206.2 278.415 205.3C277.382 204.367 275.832 203.9 273.765 203.9C272.332 203.9 270.915 204.133 269.515 204.6C268.149 205.033 266.982 205.633 266.015 206.4L263.215 200.95C264.682 199.917 266.432 199.117 268.465 198.55C270.532 197.983 272.649 197.7 274.815 197.7ZM274.215 220.15C275.549 220.15 276.732 219.85 277.765 219.25C278.799 218.617 279.532 217.7 279.965 216.5V213.75H274.615C271.415 213.75 269.815 214.8 269.815 216.9C269.815 217.9 270.199 218.7 270.965 219.3C271.765 219.867 272.849 220.15 274.215 220.15ZM295.325 207.8H309.475V214.05H295.325V207.8ZM326.162 225.4C323.928 225.4 321.745 225.133 319.612 224.6C317.478 224.033 315.778 223.333 314.512 222.5L317.112 216.9C318.312 217.667 319.762 218.3 321.462 218.8C323.162 219.267 324.828 219.5 326.462 219.5C329.762 219.5 331.412 218.683 331.412 217.05C331.412 216.283 330.962 215.733 330.062 215.4C329.162 215.067 327.778 214.783 325.912 214.55C323.712 214.217 321.895 213.833 320.462 213.4C319.028 212.967 317.778 212.2 316.712 211.1C315.678 210 315.162 208.433 315.162 206.4C315.162 204.7 315.645 203.2 316.612 201.9C317.612 200.567 319.045 199.533 320.912 198.8C322.812 198.067 325.045 197.7 327.612 197.7C329.512 197.7 331.395 197.917 333.262 198.35C335.162 198.75 336.728 199.317 337.962 200.05L335.362 205.6C332.995 204.267 330.412 203.6 327.612 203.6C325.945 203.6 324.695 203.833 323.862 204.3C323.028 204.767 322.612 205.367 322.612 206.1C322.612 206.933 323.062 207.517 323.962 207.85C324.862 208.183 326.295 208.5 328.262 208.8C330.462 209.167 332.262 209.567 333.662 210C335.062 210.4 336.278 211.15 337.312 212.25C338.345 213.35 338.862 214.883 338.862 216.85C338.862 218.517 338.362 220 337.362 221.3C336.362 222.6 334.895 223.617 332.962 224.35C331.062 225.05 328.795 225.4 326.162 225.4ZM371.524 211.65C371.524 211.75 371.474 212.45 371.374 213.75H351.024C351.391 215.417 352.258 216.733 353.624 217.7C354.991 218.667 356.691 219.15 358.724 219.15C360.124 219.15 361.358 218.95 362.424 218.55C363.524 218.117 364.541 217.45 365.474 216.55L369.624 221.05C367.091 223.95 363.391 225.4 358.524 225.4C355.491 225.4 352.808 224.817 350.474 223.65C348.141 222.45 346.341 220.8 345.074 218.7C343.808 216.6 343.174 214.217 343.174 211.55C343.174 208.917 343.791 206.55 345.024 204.45C346.291 202.317 348.008 200.667 350.174 199.5C352.374 198.3 354.824 197.7 357.524 197.7C360.158 197.7 362.541 198.267 364.674 199.4C366.808 200.533 368.474 202.167 369.674 204.3C370.908 206.4 371.524 208.85 371.524 211.65ZM357.574 203.6C355.808 203.6 354.324 204.1 353.124 205.1C351.924 206.1 351.191 207.467 350.924 209.2H364.174C363.908 207.5 363.174 206.15 361.974 205.15C360.774 204.117 359.308 203.6 357.574 203.6ZM79.95 286.6C77.05 286.6 74.4667 285.883 72.2 284.45C69.9333 283.017 68.15 280.95 66.85 278.25C65.5833 275.517 64.95 272.267 64.95 268.5C64.95 264.733 65.5833 261.5 66.85 258.8C68.15 256.067 69.9333 253.983 72.2 252.55C74.4667 251.117 77.05 250.4 79.95 250.4C82.85 250.4 85.4333 251.117 87.7 252.55C89.9667 253.983 91.7333 256.067 93 258.8C94.3 261.5 94.95 264.733 94.95 268.5C94.95 272.267 94.3 275.517 93 278.25C91.7333 280.95 89.9667 283.017 87.7 284.45C85.4333 285.883 82.85 286.6 79.95 286.6ZM79.95 279.75C82.0833 279.75 83.75 278.833 84.95 277C86.1833 275.167 86.8 272.333 86.8 268.5C86.8 264.667 86.1833 261.833 84.95 260C83.75 258.167 82.0833 257.25 79.95 257.25C77.85 257.25 76.1833 258.167 74.95 260C73.75 261.833 73.15 264.667 73.15 268.5C73.15 272.333 73.75 275.167 74.95 277C76.1833 278.833 77.85 279.75 79.95 279.75ZM117.236 264.05C119.469 264.05 121.502 264.5 123.336 265.4C125.169 266.3 126.619 267.583 127.686 269.25C128.752 270.883 129.286 272.783 129.286 274.95C129.286 277.283 128.702 279.333 127.536 281.1C126.369 282.867 124.769 284.233 122.736 285.2C120.736 286.133 118.502 286.6 116.036 286.6C111.136 286.6 107.302 285.1 104.536 282.1C101.769 279.1 100.386 274.817 100.386 269.25C100.386 265.283 101.136 261.883 102.636 259.05C104.136 256.217 106.219 254.067 108.886 252.6C111.586 251.133 114.702 250.4 118.236 250.4C120.102 250.4 121.886 250.617 123.586 251.05C125.319 251.45 126.786 252.033 127.986 252.8L124.986 258.75C123.252 257.583 121.069 257 118.436 257C115.469 257 113.119 257.867 111.386 259.6C109.652 261.333 108.719 263.85 108.586 267.15C110.652 265.083 113.536 264.05 117.236 264.05ZM115.586 280.55C117.319 280.55 118.719 280.083 119.786 279.15C120.886 278.217 121.436 276.95 121.436 275.35C121.436 273.75 120.886 272.483 119.786 271.55C118.719 270.583 117.286 270.1 115.486 270.1C113.719 270.1 112.269 270.6 111.136 271.6C110.002 272.567 109.436 273.817 109.436 275.35C109.436 276.883 109.986 278.133 111.086 279.1C112.186 280.067 113.686 280.55 115.586 280.55ZM178.432 248.9V286H170.982V282.9C169.048 285.233 166.248 286.4 162.582 286.4C160.048 286.4 157.748 285.833 155.682 284.7C153.648 283.567 152.048 281.95 150.882 279.85C149.715 277.75 149.132 275.317 149.132 272.55C149.132 269.783 149.715 267.35 150.882 265.25C152.048 263.15 153.648 261.533 155.682 260.4C157.748 259.267 160.048 258.7 162.582 258.7C166.015 258.7 168.698 259.783 170.632 261.95V248.9H178.432ZM163.932 280C165.898 280 167.532 279.333 168.832 278C170.132 276.633 170.782 274.817 170.782 272.55C170.782 270.283 170.132 268.483 168.832 267.15C167.532 265.783 165.898 265.1 163.932 265.1C161.932 265.1 160.282 265.783 158.982 267.15C157.682 268.483 157.032 270.283 157.032 272.55C157.032 274.817 157.682 276.633 158.982 278C160.282 279.333 161.932 280 163.932 280ZM213.501 272.65C213.501 272.75 213.451 273.45 213.351 274.75H193.001C193.367 276.417 194.234 277.733 195.601 278.7C196.967 279.667 198.667 280.15 200.701 280.15C202.101 280.15 203.334 279.95 204.401 279.55C205.501 279.117 206.517 278.45 207.451 277.55L211.601 282.05C209.067 284.95 205.367 286.4 200.501 286.4C197.467 286.4 194.784 285.817 192.451 284.65C190.117 283.45 188.317 281.8 187.051 279.7C185.784 277.6 185.151 275.217 185.151 272.55C185.151 269.917 185.767 267.55 187.001 265.45C188.267 263.317 189.984 261.667 192.151 260.5C194.351 259.3 196.801 258.7 199.501 258.7C202.134 258.7 204.517 259.267 206.651 260.4C208.784 261.533 210.451 263.167 211.651 265.3C212.884 267.4 213.501 269.85 213.501 272.65ZM199.551 264.6C197.784 264.6 196.301 265.1 195.101 266.1C193.901 267.1 193.167 268.467 192.901 270.2H206.151C205.884 268.5 205.151 267.15 203.951 266.15C202.751 265.117 201.284 264.6 199.551 264.6ZM252.204 258.7C255.537 258.7 258.221 259.7 260.254 261.7C262.321 263.7 263.354 266.667 263.354 270.6V286H255.554V271.8C255.554 269.667 255.087 268.083 254.154 267.05C253.221 265.983 251.871 265.45 250.104 265.45C248.137 265.45 246.571 266.067 245.404 267.3C244.237 268.5 243.654 270.3 243.654 272.7V286H235.854V259.1H243.304V262.25C244.337 261.117 245.621 260.25 247.154 259.65C248.687 259.017 250.371 258.7 252.204 258.7ZM285.017 286.4C282.184 286.4 279.634 285.817 277.367 284.65C275.134 283.45 273.384 281.8 272.117 279.7C270.851 277.6 270.217 275.217 270.217 272.55C270.217 269.883 270.851 267.5 272.117 265.4C273.384 263.3 275.134 261.667 277.367 260.5C279.634 259.3 282.184 258.7 285.017 258.7C287.851 258.7 290.384 259.3 292.617 260.5C294.851 261.667 296.601 263.3 297.867 265.4C299.134 267.5 299.767 269.883 299.767 272.55C299.767 275.217 299.134 277.6 297.867 279.7C296.601 281.8 294.851 283.45 292.617 284.65C290.384 285.817 287.851 286.4 285.017 286.4ZM285.017 280C287.017 280 288.651 279.333 289.917 278C291.217 276.633 291.867 274.817 291.867 272.55C291.867 270.283 291.217 268.483 289.917 267.15C288.651 265.783 287.017 265.1 285.017 265.1C283.017 265.1 281.367 265.783 280.067 267.15C278.767 268.483 278.117 270.283 278.117 272.55C278.117 274.817 278.767 276.633 280.067 278C281.367 279.333 283.017 280 285.017 280ZM332.448 259.1L321.098 286H313.048L301.748 259.1H309.798L317.248 277.4L324.948 259.1H332.448Z" fill="#00DEDE"/>
<path d="M206.819 136C205.099 136 203.351 135.339 202.032 134.017L178.988 110.91C175.004 106.915 175.004 100.42 178.988 96.4251C182.972 92.4302 189.45 92.4302 193.434 96.4251L206.819 109.847L244.566 71.9961C248.55 68.0013 255.028 68.0013 259.012 71.9961C262.996 75.991 262.996 82.4862 259.012 86.4811L211.605 133.988C210.287 135.339 208.567 136 206.819 136ZM186.211 98.6668C184.95 98.6668 183.66 99.1554 182.685 100.133C180.736 102.087 180.736 105.248 182.685 107.203L205.73 130.309C206.331 130.913 207.306 130.913 207.908 130.309L255.315 82.7736C257.264 80.8193 257.264 77.6579 255.315 75.7036C253.366 73.7493 250.213 73.7493 248.264 75.7036L210.143 113.928C209.255 114.819 208.08 115.307 206.819 115.307C205.558 115.307 204.382 114.819 203.494 113.928L189.736 100.133C188.762 99.1554 187.501 98.6668 186.211 98.6668Z" fill="#00DEDE"/>
</svg>
