<svg width="86" height="67" viewBox="0 0 86 67" fill="none" xmlns="http://www.w3.org/2000/svg">
<path d="M30.8187 67C29.099 67 27.3506 66.339 26.0322 65.0169L2.988 41.91C-0.996001 37.9152 -0.996001 31.4199 2.988 27.4251C6.972 23.4302 13.4496 23.4302 17.4336 27.4251L30.8187 40.8466L68.5664 2.99614C72.5504 -0.998713 79.028 -0.998713 83.012 2.99614C86.996 6.99099 86.996 13.4862 83.012 17.4811L35.6052 64.9882C34.2868 66.339 32.5671 67 30.8187 67ZM10.2108 29.6668C8.94968 29.6668 7.65989 30.1554 6.68539 31.1325C4.73638 33.0869 4.73638 36.2483 6.68539 38.2026L29.7295 61.3095C30.3314 61.913 31.306 61.913 31.9078 61.3095L79.3146 13.7736C81.2636 11.8193 81.2636 8.65791 79.3146 6.70359C77.3656 4.74928 74.2128 4.74928 72.2638 6.70359L34.1435 44.9277C33.255 45.8187 32.0798 46.3072 30.8187 46.3072C29.5576 46.3072 28.3824 45.8187 27.4939 44.9277L13.7362 31.1325C12.7617 30.1554 11.5006 29.6668 10.2108 29.6668Z" fill="#00DEDE"/>
</svg>
