<svg width="1033" height="263" viewBox="0 0 1033 263" fill="none" xmlns="http://www.w3.org/2000/svg">
<path d="M0 -2.51807V201.856C91.9926 230.495 196.171 248.314 316.428 248.314C616.732 248.314 821.348 139.902 960.592 -2.51807H0Z" fill="#3B53FF"/>
<path d="M969.497 103.827L968.266 104.64C924.39 133.171 862.407 135.244 821.66 102.371C788.097 75.2965 771.264 29.0405 743.993 -3H737C767.255 29.0333 784.031 79.1838 819.558 107.839C860.305 140.713 922.287 138.638 966.161 110.107L967.392 109.296C998.132 88.7929 1020.08 57.3754 1033 22.355C1019.86 55.1659 998.628 84.3975 969.497 103.827Z" fill="#00DEDE"/>
<path d="M576.761 -3C557.056 10.1058 538.212 24.5826 520.593 38.5019C474.115 75.2254 425.287 110.435 373.869 141.464C294.038 189.647 207.988 227.738 114.978 245.677C77.5023 252.907 38.701 256.271 0 255.617V262.964C37.6839 263.392 75.4267 260.016 111.913 252.978C204.924 235.039 290.975 196.949 370.804 148.765C422.223 117.732 471.047 82.5233 517.527 45.8017C538.488 29.2439 561.179 11.8879 585 -3H576.761Z" fill="#00DEDE"/>
</svg>
