<svg width="1440" height="455" viewBox="0 0 1440 455" fill="none" xmlns="http://www.w3.org/2000/svg">
<mask id="mask0" mask-type="alpha" maskUnits="userSpaceOnUse" x="0" y="0" width="1440" height="455">
<rect width="1440" height="455" fill="#C4C4C4"/>
</mask>
<g mask="url(#mask0)">
<path d="M1465.7 286.233L1463.29 287.733C1377.33 340.416 1257.7 341.435 1180.69 276.372C1091.18 200.755 1067.74 53.3683 958.641 10.8177C892.105 -15.1391 823.939 8.90869 760.878 48.0594C726.07 69.6683 692.813 95.8805 662.254 120.819C599.415 172.11 533.516 221.148 464.34 264.088C356.935 330.766 241.657 382.724 117.885 405.476C-73.7793 440.71 -289.344 393.406 -421.237 252.088L-449 235.28C-320.358 397.677 -89.9204 453.281 113.567 415.873C237.342 393.125 352.623 341.166 460.025 274.485C529.201 231.542 595.093 182.504 657.938 131.216C688.494 106.278 721.751 80.0657 756.559 58.4568C819.62 19.3061 887.79 -4.73849 954.323 21.2151C1063.43 63.7689 1086.86 211.156 1176.38 286.772C1253.39 351.835 1373.01 350.814 1458.97 298.131L1461.39 296.633C1521.64 258.737 1565.46 199.465 1592.03 132.844C1565.14 195.213 1522.8 250.319 1465.7 286.233Z" fill="#00DEDE"/>
</g>
</svg>
