<svg width="1280" height="287" viewBox="0 0 1280 287" fill="none" xmlns="http://www.w3.org/2000/svg">
<path d="M1156.2 185.739C1080.34 134.92 1060.48 35.8667 968.037 7.27002C911.656 -10.1743 853.894 5.98713 800.459 32.2988C770.962 46.8211 742.782 64.4377 716.887 81.1979C663.64 115.669 607.799 148.626 549.181 177.484C458.169 222.295 360.486 257.216 255.605 272.506C171.617 284.752 82.2142 282.159 0 263.669V271.47C81.2053 289.218 169.203 291.558 251.947 279.494C356.83 264.206 454.515 229.286 545.524 184.472C604.143 155.612 659.978 122.655 713.23 88.1863C739.122 71.4261 767.303 53.8094 796.799 39.2863C850.234 12.9737 908 -3.185 964.378 14.2575C1056.83 42.856 1076.68 141.91 1152.54 192.729C1187.86 216.399 1233.77 227.048 1280 226.228V219.282C1235.01 219.489 1190.59 208.784 1156.2 185.739Z" fill="#00DEDE"/>
</svg>
